<?xml version="1.0" encoding="UTF-8"?><svg id="_이어_1" xmlns="http://www.w3.org/2000/svg" viewBox="0 0 20.93 20"><path d="M10.46,1.05l2.45,4.97c.29,.58,.84,.98,1.48,1.07l5.49,.8-3.97,3.87c-.46,.45-.67,1.1-.56,1.74l.94,5.46-4.91-2.58c-.28-.15-.6-.23-.91-.23s-.63,.08-.91,.23l-4.91,2.59,.94-5.47c.11-.64-.1-1.28-.56-1.74L1.05,7.89l5.49-.8c.64-.09,1.19-.49,1.48-1.07L10.46,1.05m0-1.05c-.34,0-.69,.18-.86,.54l-2.49,5.04c-.14,.28-.41,.48-.72,.53L.82,6.91c-.79,.11-1.1,1.08-.53,1.64l4.03,3.93c.23,.22,.33,.54,.28,.85l-.95,5.54c-.11,.62,.39,1.13,.95,1.13,.15,0,.3-.04,.45-.11l4.98-2.62c.14-.07,.29-.11,.45-.11s.31,.04,.45,.11l4.98,2.62c.15,.08,.3,.11,.45,.11,.56,0,1.05-.5,.95-1.13l-.95-5.54c-.05-.31,.05-.63,.28-.85l4.03-3.93c.57-.56,.26-1.52-.53-1.64l-5.57-.81c-.31-.05-.58-.24-.72-.53L11.32,.54c-.18-.36-.52-.54-.86-.54h0Z"/></svg>