<?xml version="1.0" encoding="UTF-8"?><svg id="_레이어_2" xmlns="http://www.w3.org/2000/svg" viewBox="0 0 544.43 146.26"><g id="_레이어_1-2"><g><path d="M81.19,144.24H38.49V31.92H0V0H119.68V31.92h-38.49v112.32Z"/><path d="M241.13,88.08c0,18.72-5.46,33.1-16.37,43.13-10.92,10.03-25.88,15.05-44.91,15.05-11.8,0-22.27-2.25-31.41-6.77-9.15-4.51-16.34-11.11-21.57-19.8-5.24-8.69-7.85-19.22-7.85-31.62,0-18.45,5.45-32.66,16.37-42.63,10.91-9.96,25.96-14.95,45.13-14.95,11.8,0,22.23,2.22,31.3,6.67,9.07,4.44,16.22,10.94,21.46,19.5,5.23,8.55,7.85,19.02,7.85,31.41Zm-79.2,0c0,9.56,1.4,16.87,4.2,21.92,2.8,5.05,7.52,7.58,14.16,7.58s11.1-2.53,13.83-7.58c2.73-5.05,4.09-12.35,4.09-21.92s-1.37-16.6-4.09-21.52c-2.73-4.91-7.41-7.37-14.05-7.37s-11.14,2.46-13.94,7.37c-2.8,4.92-4.2,12.09-4.2,21.52Z"/><path d="M401.74,69.09c0,16.7-3.43,30.64-10.29,41.82-6.86,11.18-16.48,19.53-28.87,25.05-12.39,5.52-26.99,8.28-43.8,8.28h-51.1V0h54.64c25.37,0,44.94,5.93,58.74,17.78,13.79,11.85,20.68,28.96,20.68,51.31Zm-44.24,1.41c0-25.99-11.58-38.99-34.73-38.99h-12.39V112.32h9.51c12.98,0,22.49-3.43,28.54-10.3,6.05-6.87,9.07-17.37,9.07-31.52Z"/><path d="M544.43,88.08c0,18.72-5.46,33.1-16.37,43.13-10.92,10.03-25.88,15.05-44.91,15.05-11.8,0-22.27-2.25-31.41-6.77-9.15-4.51-16.34-11.11-21.57-19.8-5.24-8.69-7.85-19.22-7.85-31.62,0-18.45,5.46-32.66,16.37-42.63,10.91-9.96,25.96-14.95,45.13-14.95,11.8,0,22.23,2.22,31.3,6.67,9.07,4.44,16.22,10.94,21.46,19.5,5.23,8.55,7.85,19.02,7.85,31.41Zm-79.2,0c0,9.56,1.4,16.87,4.2,21.92,2.8,5.05,7.52,7.58,14.16,7.58s11.1-2.53,13.83-7.58c2.73-5.05,4.09-12.35,4.09-21.92s-1.37-16.6-4.09-21.52c-2.73-4.91-7.41-7.37-14.05-7.37s-11.14,2.46-13.94,7.37c-2.8,4.92-4.2,12.09-4.2,21.52Z"/></g></g></svg>